<?xml version="1.0" encoding="utf-8"?>
<!-- Generator: Adobe Illustrator 24.2.1, SVG Export Plug-In . SVG Version: 6.00 Build 0)  -->
<svg version="1.1" id="Artwork" xmlns="http://www.w3.org/2000/svg" xmlns:xlink="http://www.w3.org/1999/xlink" x="0px" y="0px"
	 viewBox="0 0 1440 1749" style="enable-background:new 0 0 1440 1749;" xml:space="preserve">
<style type="text/css">
	.st0{fill:#000E54;}
	.st1{fill:#F76900;}
</style>
<g>
	<path class="st0" d="M2.6,1741.1V1721l23.8-5.8v-151L0,1556.8v-18.5c25.9-4.2,38.5-12.7,50.2-30.1l18.5,3.2v203.8l23.8,5.8v20.1
		H2.6z M50.2,1419.5c14.8,0,26.4,11.6,26.4,26.4c0,14.8-11.6,26.4-26.4,26.4c-14.8,0-26.4-11.6-26.4-26.4
		C23.8,1431.1,35.4,1419.5,50.2,1419.5z"/>
	<path class="st0" d="M131.2,1741.1l-19.5-91.9l24.8-9c15.3,33.8,45.4,76.6,100.3,76.6c34.3,0,69.2-19,69.2-63.4
		c0-84.5-179-66.5-179-173.7c0-63.4,48.6-95,104.5-95c37.5,0,58.6,16.4,65.5,24.8l6.3-16.9h21.1l21.1,82.9l-24.8,9
		c-14.8-32.2-45.4-67.6-89.8-67.6c-38.5,0-56.5,22.7-56.5,51.2c0,76.6,179,57,179,173.2c0,78.1-66.5,107.7-119.3,107.7
		c-30.6,0-54.9-10-76-24.3l-6.3,16.4H131.2z"/>
	<path class="st0" d="M579.3,1553.6c0,15.8-15.3,25.3-30.1,25.9c-8.5-21.1-22.7-35.4-50.7-35.4c-39.6,0-70.8,33.3-70.8,89.8
		c0,47,30.1,77.6,70.8,77.6c30.6,0,52.8-14.3,68.1-33.8l11.1,6.9c-7.9,34.3-39.6,64.4-95.6,64.4c-52.3,0-98.7-36.4-98.7-104.5
		c0-84,67.6-133.1,129.4-133.1C544.5,1511.4,579.3,1524.6,579.3,1553.6z"/>
	<path class="st0" d="M597,1741.1V1721l21.1-5.3v-273l-26.4-7.4v-18.5c25.9-4.2,38.5-12.7,50.2-30.1l18.5,3.2v163.1
		c25.9-23.7,54.9-41.7,86.6-41.7c33.3,0,58.6,22.7,58.6,52.3v151l26.4,6.3v20.1h-89.8V1721l21.1-5.3v-131.5
		c0-22.7-11.1-34.8-31.7-34.8c-15.8,0-44.3,6.9-71.3,30.6v134.7l26.4,6.3v20.1H597z"/>
	<path class="st0" d="M1076.5,1627.6c0,72.3-54.9,121.4-116.2,121.4s-110.9-44.9-110.9-116.1c0-72.3,54.9-121.4,116.2-121.4
		S1076.5,1556.3,1076.5,1627.6z M1032.1,1637.1c0-62.3-33.3-97.7-71.3-97.7c-37,0-67.1,24.8-67.1,84c0,62.3,33.3,97.7,71.3,97.7
		C1002,1721,1032.1,1696.2,1032.1,1637.1z"/>
	<path class="st0" d="M1330.1,1627.6c0,72.3-54.9,121.4-116.2,121.4c-61.2,0-110.9-44.9-110.9-116.1c0-72.3,54.9-121.4,116.2-121.4
		C1280.5,1511.4,1330.1,1556.3,1330.1,1627.6z M1285.8,1637.1c0-62.3-33.3-97.7-71.3-97.7c-37,0-67,24.8-67,84
		c0,62.3,33.3,97.7,71.3,97.7C1255.7,1721,1285.8,1696.2,1285.8,1637.1z"/>
	<path class="st0" d="M1350.3,1741.1V1721l23.7-5.8v-272.5l-26.4-7.4v-18.5c25.9-4.2,38.6-12.7,50.2-30.1l18.5,3.2v325.2l23.7,5.8
		v20.1H1350.3z"/>
</g>
<g>
	<path id="XMLID_2_" class="st1" d="M847.1,348.1l272,0V149.9C1114.6,145.6,967.2,4.1,962.9,0H472c-4.3,4.2-146.8,145.5-151.1,149.8
		v363.6c4.2,4.3,140.7,142.4,145,146.7h381.3V871h-252V750.8l-274.3,0v198.2c4.3,4.3,146.8,145.6,151.1,149.8h491
		c4.2-4.1,151.7-145.6,156.1-149.9V585.5c-4.2-4.3-140.7-142.4-145-146.8H595.1V227.9h252V348.1z"/>
</g>
</svg>
